<?xml version="1.0" encoding="UTF-8" standalone="no"?>
<!-- Created with Inkscape (http://www.inkscape.org/) -->

<svg
   xmlns:dc="http://purl.org/dc/elements/1.1/"
   xmlns:cc="http://creativecommons.org/ns#"
   xmlns:rdf="http://www.w3.org/1999/02/22-rdf-syntax-ns#"
   xmlns:svg="http://www.w3.org/2000/svg"
   xmlns="http://www.w3.org/2000/svg"
   xmlns:sodipodi="http://sodipodi.sourceforge.net/DTD/sodipodi-0.dtd"
   xmlns:inkscape="http://www.inkscape.org/namespaces/inkscape"
   width="512"
   height="512"
   viewBox="0 0 135.46666 135.46666"
   version="1.1"
   id="svg8"
   inkscape:version="0.92.3 (2405546, 2018-03-11)"
   sodipodi:docname="digital-fist.svg">
  <defs
     id="defs2" />
  <sodipodi:namedview
     id="base"
     pagecolor="#ffffff"
     bordercolor="#666666"
     borderopacity="1"
     inkscape:pageopacity="0.0"
     inkscape:pageshadow="2"
     inkscape:zoom="0.24748737"
     inkscape:cx="299.08141"
     inkscape:cy="68.056108"
     inkscape:document-units="mm"
     inkscape:current-layer="layer1"
     showgrid="false"
     units="px"
     inkscape:window-width="1366"
     inkscape:window-height="681"
     inkscape:window-x="0"
     inkscape:window-y="26"
     inkscape:window-maximized="1" />
  <metadata
     id="metadata5">
    <rdf:RDF>
      <cc:Work
         rdf:about="">
        <dc:format>image/svg+xml</dc:format>
        <dc:type
           rdf:resource="http://purl.org/dc/dcmitype/StillImage" />
        <dc:title></dc:title>
      </cc:Work>
    </rdf:RDF>
  </metadata>
  <g
     inkscape:label="Layer 1"
     inkscape:groupmode="layer"
     id="layer1"
     transform="translate(0,-161.53336)">
    <path
       style="fill:#000000;stroke-width:0.31750801"
       d="m 59.330503,288.62902 v -6.60287 l 2.51103,-2.50181 c 2.296986,-2.28854 2.484941,-2.57043 2.204948,-3.30687 -0.410863,-1.08064 -0.103587,-2.14529 0.678184,-2.34972 0.611199,-0.15984 0.638489,-0.42313 0.638489,-6.15991 v -5.99294 l -1.905048,-1.88517 -1.905048,-1.88517 v -2.40834 c 0,-2.33556 0.03359,-2.4409 1.111278,-3.48543 0.611203,-0.59241 1.111279,-1.23666 1.111279,-1.43167 0,-0.19502 0.415227,-0.75239 0.922725,-1.2386 0.6863,-0.65752 1.101099,-0.82742 1.618885,-0.66308 0.606858,0.19261 0.667818,0.13166 0.475207,-0.47521 -0.31821,-1.00258 1.282047,-2.64715 2.32187,-2.38618 0.64643,0.16225 0.716285,0.0976 0.529692,-0.49033 -0.157065,-0.49485 0.02311,-0.92569 0.669084,-1.59994 0.486213,-0.5075 1.046707,-0.92273 1.24554,-0.92273 0.352192,0 1.434672,1.05049 1.859329,1.80437 0.325494,0.57785 -1.737368,2.35529 -2.465512,2.12438 -0.498241,-0.15801 -0.570201,-0.0689 -0.417101,0.51657 0.24149,0.92346 -1.517768,2.63401 -2.415849,2.34897 -0.490007,-0.15551 -0.558919,-0.071 -0.386114,0.47344 0.153146,0.48253 -0.02362,0.8796 -0.650035,1.46013 -0.47321,0.43856 -1.025811,0.79738 -1.228001,0.79738 -0.202185,0 -0.824275,0.47116 -1.382419,1.04702 -0.796364,0.82163 -1.01481,1.31929 -1.01481,2.31187 0,1.1248 0.210942,1.4736 1.905048,3.15003 l 1.905048,1.88516 v 6.59824 c 0,6.3654 0.0222,6.59823 0.628968,6.59823 0.77563,0 1.138368,1.20691 0.730493,2.43053 -0.179551,0.53865 -0.17027,1.39381 0.02435,2.24432 0.37591,1.64272 0.172235,1.92472 -1.692883,2.34378 -1.047008,0.23524 -1.55644,0.19068 -2.340305,-0.20468 l -1.001972,-0.50538 -1.190654,1.33166 -1.190656,1.33166 v 5.99181 c 4e-6,3.78288 -0.117051,5.99183 -0.317505,5.99183 -0.200976,0 -0.317508,-2.30592 -0.317508,-6.28272 v -6.28273 l 1.611408,-1.5756 c 0.886273,-0.86658 1.759788,-1.86136 1.941141,-2.21062 0.181352,-0.34926 -0.686658,0.3613 -1.928914,1.57903 l -2.258651,2.21403 v 6.43806 c 0,4.08036 -0.116271,6.43805 -0.317508,6.43805 -0.201493,0 -0.317507,-2.41262 -0.317507,-6.60285 z m 7.288862,-21.25887 0.0331,-6.27119 -1.914687,-1.89471 c -1.831663,-1.81255 -1.914687,-1.96332 -1.914687,-3.47707 0,-1.34082 0.150848,-1.73801 0.988218,-2.60194 1.384652,-1.4286 0.874731,-2.10098 -0.547749,-0.72225 -1.007897,0.97688 -1.075485,1.17379 -1.075485,3.13323 v 2.09083 l 1.905048,1.88517 1.905048,1.88517 v 6.12197 c 0,3.54402 0.123821,6.12196 0.294047,6.12196 0.169349,0 0.308085,-2.65944 0.327147,-6.27117 z m -11.416467,14.68514 c 0,-9.62501 -0.05899,-10.95402 -0.486225,-10.95402 -0.267427,0 -0.569441,-0.21686 -0.671145,-0.48189 -0.101703,-0.26503 -0.347255,-0.46243 -0.545673,-0.43864 -1.286291,0.15418 -1.691006,-0.83702 -0.440135,-1.07795 l 0.714392,-0.13761 -0.714392,-0.0432 c -0.758521,-0.046 -0.98525,-0.83354 -0.317509,-1.10299 0.317509,-0.12811 0.317509,-0.16516 0,-0.18521 -0.690506,-0.0437 -0.428527,-0.92733 0.317509,-1.07103 l 0.714392,-0.13759 -0.714392,-0.0432 c -0.736498,-0.0445 -1.037064,-0.99181 -0.317509,-1.00062 0.288178,-0.004 0.297089,-0.0688 0.03254,-0.23814 -0.200386,-0.1283 -0.338946,-0.73269 -0.307906,-1.34309 0.04909,-0.96553 0.179036,-1.13084 0.999356,-1.27146 0.81249,-0.13928 0.955981,-0.31653 1.037324,-1.28141 0.07284,-0.86396 -0.09036,-1.29334 -0.714393,-1.87958 l -0.808794,-0.75983 v -5.74485 -5.74484 l -3.333834,-3.32256 -3.333834,-3.32249 v -3.05159 -3.05159 l -4.165893,-4.14576 c -2.667206,-2.65431 -4.080526,-4.28388 -3.928602,-4.52969 0.157516,-0.25488 1.664751,1.04058 4.4834,3.85342 l 4.24611,4.23737 v 3.17431 3.17431 l 3.340468,3.35085 3.340463,3.35086 0.0294,5.77372 c 0.02296,4.50713 0.125981,5.85386 0.46963,6.13906 0.372842,0.30943 0.440231,-0.62225 0.440231,-6.08633 v -6.45169 l -3.433948,-3.50931 -3.433947,-3.50932 0.05761,-2.69882 0.05761,-2.69882 -4.442963,-4.4895 c -2.870343,-2.90042 -4.358204,-4.62667 -4.203498,-4.87699 0.160246,-0.25928 1.749192,1.11956 4.802975,4.1679 l 4.563507,4.55536 v 3.02611 3.0261 l 3.333834,3.3225 3.333834,3.32249 v 8.02274 c 0,5.13682 0.114219,8.02275 0.317509,8.02275 0.203341,0 0.317507,-2.90137 0.317507,-8.06908 v -8.06909 l -3.333945,-3.36642 -3.333944,-3.36643 -0.03946,-1.9792 c -0.04447,-2.23069 0.418183,-3.7255 1.153058,-3.7255 0.816891,0 0.944599,0.94437 0.198388,1.46704 -0.545621,0.38218 -0.676755,0.79943 -0.676755,2.15338 v 1.67937 l 3.488337,3.46214 3.488335,3.46213 0.0042,8.19457 c 0.0029,5.38114 0.113259,8.1272 0.32176,7.99834 0.19781,-0.12226 0.317507,-3.15373 0.317507,-8.04123 l -2e-6,-7.845 -3.492588,-3.48176 c -3.240773,-3.23072 -3.492589,-3.57014 -3.492589,-4.70755 0,-0.95877 0.138333,-1.26197 0.635017,-1.39186 0.349259,-0.0913 0.635016,-0.33523 0.635016,-0.54199 0,-0.70624 0.793017,-2.08512 1.200618,-2.08759 0.709836,-0.005 0.852277,1.0092 0.208041,1.48029 -0.422949,0.30927 -0.616207,0.8803 -0.656054,1.9385 l -0.05648,1.5001 3.462034,3.50932 c 2.546208,2.58098 3.462038,3.71939 3.462038,4.30345 0,0.76773 1.740733,2.82376 2.390745,2.82376 0.16319,0 1.679548,-1.37765 3.369678,-3.06145 l 3.072966,-3.06143 -2.035385,-2.08605 c -1.928814,-1.97682 -2.350502,-2.58635 -1.789306,-2.58635 0.13534,0 1.285487,1.0464 2.555881,2.32532 l 2.309804,2.32532 -3.737532,3.70306 -3.737529,3.70305 -1.199663,-1.17143 -1.199659,-1.17145 v 6.82736 c 0,6.98006 0.09954,7.58283 1.254156,7.59424 0.270675,0.002 0.706455,0.14555 0.968399,0.31751 0.423343,0.2779 0.423343,0.34792 0,0.63016 -0.411284,0.27418 -0.414068,0.35752 -0.02041,0.61081 0.365404,0.23511 0.378095,0.38699 0.06396,0.7655 -0.270117,0.32547 -0.28683,0.53712 -0.05379,0.68115 0.499101,0.30847 0.07589,0.79542 -0.722892,0.83175 -0.684297,0.0312 -0.683684,0.035 0.03748,0.23814 1.040395,0.29302 0.98208,0.80894 -0.116115,1.02736 l -0.934521,0.18587 0.952524,0.13164 c 0.523887,0.0724 0.952523,0.27312 0.952523,0.44603 0,0.17291 -0.428636,0.39943 -0.952523,0.50338 l -0.952524,0.18898 0.952524,0.13164 c 1.0975,0.15167 1.16145,0.71386 0.09982,0.87749 -0.395511,0.061 -0.909346,0.38243 -1.141857,0.71439 -0.232515,0.33196 -0.628967,0.60356 -0.881009,0.60356 -0.390354,0 -0.458259,1.59964 -0.458259,10.79527 v 10.79528 h -1.58754 -1.58754 z m 2.155273,-37.45557 -1.348707,-1.28041 1.09592,1.19905 1.09592,1.19904 -0.09693,7.59924 c -0.05331,4.17957 0.02216,7.78348 0.167714,8.00868 0.146203,0.22622 0.30271,-3.13826 0.34971,-7.51788 l 0.08508,-7.92733 z m -1.837764,-1.85602 c 0,-0.0546 -0.464355,-0.519 -1.031901,-1.0319 l -1.031901,-0.93255 0.932549,1.0319 c 0.869267,0.96188 1.131253,1.17784 1.131253,0.93255 z m -3.119735,-3.17556 c -0.379698,-0.40417 -0.690361,-1.127 -0.690361,-1.60629 0,-0.50009 -0.135294,-0.7878 -0.317509,-0.67519 -0.174629,0.10789 -0.317507,0.39115 -0.317507,0.62939 0,0.44129 1.49157,2.38694 1.829865,2.38694 0.10223,0 -0.124787,-0.33068 -0.504488,-0.73485 z m 23.281492,50.58019 c -0.349259,-0.15196 -1.436933,-0.19713 -2.417052,-0.10033 -1.774549,0.1752 -1.783512,0.17171 -2.133981,-0.83366 l -0.351948,-1.00959 -2.469885,0.0701 c -1.987968,0.0564 -2.550834,0.18436 -2.88477,0.65602 -0.883742,1.2482 -3.553962,0.40159 -3.553962,-1.12681 0,-0.859 0.604697,-1.7798 1.168813,-1.7798 0.380912,0 0.29702,-0.19872 -0.328681,-0.7786 -0.462071,-0.42824 -0.840132,-1.12048 -0.840132,-1.53833 0,-1.81951 2.817036,-2.62636 3.550359,-1.01689 0.330415,0.72517 0.535595,0.79377 2.374505,0.79377 h 2.012836 v -12.85908 c 0,-7.07249 -0.117975,-12.85907 -0.262163,-12.85907 -0.398691,0 -1.642885,1.41575 -1.642885,1.86941 0,0.21984 -0.250037,0.35205 -0.555639,0.2938 -0.680343,-0.12966 -0.963513,-1.5282 -0.309424,-1.5282 0.247025,0 0.707742,-0.28575 1.023817,-0.63501 0.316076,-0.34927 0.838295,-0.63502 1.160488,-0.63502 0.457822,0 0.585806,-0.24279 0.585806,-1.11127 0,-0.69885 -0.152838,-1.11128 -0.411824,-1.11128 -0.492947,0 -2.591598,2.15014 -2.866618,2.93694 -0.25954,0.74252 -1.186003,0.70905 -1.384502,-0.05 -0.08711,-0.33312 -0.430932,-0.67694 -0.764046,-0.76405 -0.767128,-0.20061 -0.79758,-1.17035 -0.03676,-1.17035 0.312902,0 1.205892,-0.64924 1.984425,-1.44274 1.312842,-1.33808 1.518658,-1.43596 2.837452,-1.34941 l 1.42193,0.0934 0.0068,8.64773 c 0.0066,8.25655 0.03166,8.61561 0.55543,7.9377 0.487355,-0.63079 0.549368,-1.64022 0.555638,-9.04462 l 0.0071,-8.33459 -2.460687,-0.002 -2.460687,-0.002 3.738504,-3.71446 3.738508,-3.71446 -2.624439,-2.63814 -2.624441,-2.63815 -0.05893,-4.6486 -0.05893,-4.6486 -2.404545,-2.41874 c -2.139892,-2.15229 -2.404545,-2.55 -2.404545,-3.6133 0,-0.65715 -0.225339,-1.53872 -0.500751,-1.95905 -0.670078,-1.02267 -0.473277,-2.03197 0.543691,-2.78832 0.746821,-0.55542 0.934426,-0.57567 1.746293,-0.18835 0.713009,0.34015 0.930211,0.67947 1.005015,1.57012 0.06169,0.73452 -0.07863,1.28065 -0.396885,1.54479 -0.270774,0.22473 -0.492315,0.85903 -0.492315,1.40956 0,0.82372 0.421676,1.41984 2.38131,3.36638 l 2.38131,2.36542 v 4.77202 4.77203 l 2.460687,2.39465 c 3.847492,3.74425 3.79157,3.08291 0.537163,6.35247 l -2.825856,2.83901 h 1.342788 1.34279 v 9.16885 c 0,7.76276 0.07303,9.22947 0.476262,9.56412 0.56994,0.473 0.630809,2.25852 0.09525,2.79407 -0.209555,0.20956 -0.930844,0.38101 -1.602866,0.38101 -1.077796,0 -1.273039,-0.12166 -1.655927,-1.0319 -0.384947,-0.91512 -0.4281,-0.31325 -0.381305,5.31826 l 0.05276,6.35015 3.823079,0.0886 3.823075,0.0887 -0.01324,-0.86983 c -0.0096,-0.63362 0.257229,-1.04571 0.982652,-1.51742 0.547739,-0.35615 1.248912,-1.11192 1.558161,-1.67946 0.309253,-0.56755 0.754094,-1.03191 0.988539,-1.03191 0.338286,0 0.426264,-1.01247 0.426264,-4.90559 0,-4.17017 -0.07629,-4.9483 -0.508882,-5.19038 -0.847535,-0.4743 -0.412631,-1.49307 0.637381,-1.49307 1.169233,0 1.889208,0.99069 1.062157,1.46152 -0.491843,0.28001 -0.555639,0.88389 -0.555639,5.25939 v 4.94306 l 0.952524,1.08486 c 1.081324,1.23156 1.183707,1.81123 0.423831,2.39966 -0.290781,0.22517 -1.159276,1.04852 -1.929988,1.82968 l -1.401299,1.42027 -0.953311,-0.54713 c -0.81646,-0.46858 -1.879149,-0.54713 -7.402912,-0.54713 h -6.449607 l -0.946561,0.88423 -0.946561,0.88422 0.817529,0.38581 c 0.449642,0.21219 1.944889,0.38581 3.322775,0.38581 2.200108,0 2.574324,-0.0853 3.072382,-0.70038 0.516056,-0.6373 0.675235,-0.6672 1.76743,-0.33199 0.916052,0.28114 1.534495,0.27899 2.611526,-0.01 1.316525,-0.35213 1.450284,-0.32922 1.993277,0.34136 0.559214,0.69059 0.747948,0.71531 4.809938,0.63006 l 4.227883,-0.0888 0.04823,-3.7859 c 0.02654,-2.08226 -0.02128,-3.96704 -0.106227,-4.18842 -0.08495,-0.22138 -0.462397,-0.44659 -0.838764,-0.50046 -0.998248,-0.14288 -0.968932,-0.8562 0.105146,-2.55862 1.220845,-1.93504 2.033246,-1.98381 3.27047,-0.19631 1.037207,1.49852 1.029884,2.6096 -0.01819,2.75846 -0.70671,0.10032 -0.714393,0.15584 -0.714393,5.15949 l 1.2e-5,5.05806 h -5.090072 c -4.56097,0 -5.110577,0.0577 -5.287143,0.55563 -0.277727,0.78313 -1.087116,1.67105 -1.499149,1.6446 -0.191218,-0.0122 -0.633432,-0.14665 -0.98269,-0.29861 z m -11.271534,-2.3779 c 0,-0.26194 -0.214318,-0.47625 -0.476262,-0.47625 -0.261944,0 -0.476262,0.21431 -0.476262,0.47625 0,0.26194 0.214318,0.47627 0.476262,0.47627 0.261944,0 0.476262,-0.21433 0.476262,-0.47627 z m 0,-4.14634 c 0,-0.52391 -0.501802,-0.61243 -0.79377,-0.14001 -0.258931,0.41895 0.12072,1.0135 0.498202,0.7802 0.162561,-0.10044 0.295568,-0.38855 0.295568,-0.64019 z m 8.890224,-12.68159 c 0,-0.26194 -0.214318,-0.47625 -0.476262,-0.47625 -0.261945,0 -0.476262,0.21431 -0.476262,0.47625 0,0.26196 0.214317,0.47627 0.476262,0.47627 0.261944,0 0.476262,-0.21431 0.476262,-0.47627 z m -6.032652,-15.24038 c 0.771236,-0.78583 1.658255,-1.42878 1.971156,-1.42878 0.312898,0 0.568908,-0.14287 0.568908,-0.3175 0,-0.17464 -0.387509,-0.31752 -0.86113,-0.31752 -0.911774,0 -3.583982,2.29826 -3.583982,3.08244 0,0.70279 0.453671,0.46021 1.905048,-1.01864 z m -1.587539,-34.62711 c 0,-0.52391 -0.501804,-0.61242 -0.793771,-0.14001 -0.258931,0.41896 0.120719,1.01351 0.498202,0.78022 0.162561,-0.10045 0.295569,-0.38856 0.295569,-0.64021 z M 50.91654,288.87147 c -0.885368,-0.59587 -1.411424,-0.63753 -7.461437,-0.59079 l -6.508914,0.0503 -0.08659,-4.72539 -0.08661,-4.72538 3.182304,-3.16912 3.182302,-3.16913 v -6.04487 -6.04489 l 3.016327,-3.00378 3.016326,-3.00379 v -2.42808 c 0,-1.77094 -0.128895,-2.53505 -0.476262,-2.82333 -0.655749,-0.54423 -0.597846,-2.01411 0.104379,-2.64962 1.749325,-1.58312 4.185441,0.62929 2.763291,2.50955 -0.322913,0.42692 -0.469268,1.44759 -0.476262,3.32141 l -0.01008,2.70509 -3.016326,3.00379 -3.016327,3.00378 v 4.59687 4.59686 l 1.461331,-1.41551 1.461334,-1.41552 -0.165853,-2.93695 c -0.163181,-2.88959 -0.154243,-2.93694 0.554153,-2.93694 0.581382,0 0.725188,0.18232 0.746928,0.947 0.0148,0.52085 -0.106323,1.02936 -0.26919,1.13001 -0.162862,0.10068 -0.296115,0.53178 -0.296115,0.95804 0,0.55982 0.173951,0.77504 0.626415,0.77504 0.577354,0 0.616693,-0.18028 0.502307,-2.30193 -0.06826,-1.26607 -0.215842,-2.7663 -0.327969,-3.33384 -0.169934,-0.86015 -0.108207,-1.03109 0.370839,-1.02703 1.087444,0.01 1.422248,0.44737 1.063268,1.39155 -0.181395,0.47711 -0.329812,2.07264 -0.329812,3.54562 0,2.64502 -0.0098,2.67816 -0.793769,2.67816 -0.436574,0 -0.79377,0.14287 -0.79377,0.3175 0,0.17463 -0.0038,0.42467 -0.0085,0.55564 -0.0047,0.13097 -0.897645,1.1666 -1.984425,2.30138 -1.841131,1.92246 -1.856469,1.94989 -0.22483,0.40197 1.513865,-1.43619 1.795527,-1.59089 2.078817,-1.14178 0.180226,0.28572 0.606688,0.54005 0.947691,0.56517 0.677521,0.0499 0.778755,0.19215 0.778755,1.09413 0,0.44266 -0.210393,0.58934 -0.797009,0.55564 -0.467749,-0.0269 -0.737881,-0.20016 -0.653888,-0.41946 0.07872,-0.20552 -0.06979,-0.55037 -0.330008,-0.76633 -0.393358,-0.32647 -0.738134,-0.13164 -2.044929,1.1555 -0.864493,0.85149 -1.57418,1.69642 -1.577088,1.87761 -0.0029,0.18119 -1.50776,1.81428 -3.344118,3.62907 l -3.338831,3.29963 0.08967,3.36804 0.08967,3.36804 h 3.492611 3.492587 l 0.106059,-0.93104 c 0.07643,-0.67096 -0.09057,-1.07934 -0.597808,-1.46196 -0.907434,-0.68448 -1.225937,-3.32142 -0.515642,-4.26909 0.426645,-0.56922 0.603696,-0.59417 1.850861,-0.26081 1.034822,0.27659 1.715538,0.27875 2.726848,0.008 1.630233,-0.43543 1.966581,-0.1905 2.20776,1.60762 0.113331,0.84497 -0.0029,1.62901 -0.342563,2.30978 -0.282775,0.56685 -0.514137,1.53088 -0.514137,2.14233 0,1.05688 0.02864,1.08579 0.580639,0.58623 0.661497,-0.59865 1.716164,-0.67801 2.615314,-0.19679 0.808195,0.43253 0.828639,2.23636 0.0335,2.95595 -0.769119,0.69604 -1.594361,0.66013 -2.753195,-0.11977 z m 2.063803,-1.25979 c 0,-0.34926 -0.134446,-0.63502 -0.298769,-0.63502 -0.426207,0 -0.726529,0.57791 -0.495001,0.95252 0.331834,0.53692 0.79377,0.35215 0.79377,-0.3175 z m -4.445113,-2.38132 c 0,-1.1968 -0.09888,-1.42878 -0.609046,-1.42878 -1.262247,0 -1.613509,0.353 -1.613509,1.62151 0,1.20098 0.03156,1.23607 1.111277,1.23607 1.105398,0 1.111278,-0.007 1.111278,-1.4288 z m 1.213475,0.34141 c 0.04027,-0.59807 -0.07339,-1.17801 -0.252613,-1.28877 -0.202348,-0.12506 -0.325845,0.28707 -0.325845,1.08738 0,1.56236 0.475649,1.72795 0.578458,0.20139 z m 0.850328,-37.59567 c 0,-0.57426 -0.621459,-0.46943 -0.744715,0.12563 -0.06858,0.33106 0.05045,0.47622 0.317508,0.38719 0.234962,-0.0784 0.427207,-0.30909 0.427207,-0.51282 z m -10.883377,37.87128 c -0.981313,-0.68734 -0.937969,-2.13449 0.08811,-2.94159 0.631079,-0.49641 0.793771,-0.90974 0.793771,-2.01664 0,-1.28702 0.150656,-1.54159 1.992968,-3.36753 l 1.992967,-1.97525 h 2.917234 c 2.532939,0 2.959432,-0.0788 3.23754,-0.59849 0.466277,-0.87124 1.833154,-1.12199 2.770009,-0.50814 1.113336,0.72949 0.955783,2.67081 -0.263963,3.25251 -0.983163,0.46887 -2.360018,0.0228 -2.638552,-0.85472 -0.136683,-0.43066 -0.622144,-0.50943 -2.892193,-0.46929 l -2.727939,0.0482 -1.876526,1.85695 c -1.632135,1.6151 -1.87653,2.01331 -1.87653,3.05754 0,0.66032 0.132674,1.2006 0.294828,1.2006 0.591004,0 1.292712,1.01969 1.292712,1.87851 0,1.65866 -1.678753,2.4359 -3.104431,1.43732 z m 1.834399,-1.41078 c 0,-0.34927 -0.134445,-0.63502 -0.298769,-0.63502 -0.426206,0 -0.726528,0.57791 -0.495001,0.95253 0.331834,0.53692 0.79377,0.35213 0.79377,-0.31751 z m 11.430288,-8.41396 c 0,-0.26194 -0.214319,-0.47627 -0.476262,-0.47627 -0.261944,0 -0.476262,0.21433 -0.476262,0.47627 0,0.26194 0.214318,0.47626 0.476262,0.47626 0.261943,0 0.476262,-0.21432 0.476262,-0.47626 z m 22.700478,4.22857 -0.880751,-0.69279 0.855639,-0.73599 c 0.470598,-0.40479 1.251398,-0.73599 1.735108,-0.73599 0.508775,0 1.170462,-0.30974 1.569835,-0.73486 0.670759,-0.71398 0.690362,-0.95998 0.690362,-8.66301 v -7.92815 l -0.952524,-0.56267 c -1.139631,-0.6732 -1.185696,-1.02424 -0.238131,-1.81473 0.895903,-0.74739 1.63369,-0.76639 2.808584,-0.0724 1.173058,0.69294 1.165199,1.18084 -0.03039,1.8871 l -0.952524,0.56267 v 8.1314 8.13141 l -0.773681,0.72683 c -0.651339,0.6119 -0.714101,0.82371 -0.396885,1.33944 0.319727,0.51982 0.256572,0.70558 -0.416974,1.2265 -1.04055,0.80475 -1.93669,0.78552 -3.017669,-0.0648 z m -4.106046,-0.36939 c -0.531521,-0.53153 -0.699101,-0.98319 -0.585424,-1.57785 0.19496,-1.01986 0.63607,-1.41155 1.75903,-1.56194 0.473268,-0.0634 1.291257,-0.52794 1.817759,-1.03235 l 0.95727,-0.91713 v -9.94209 -9.9421 h 3.016326 3.016326 v -5.79949 -5.79948 l -3.810096,-3.80018 -3.810097,-3.80017 v -4.93129 -4.9313 l -3.810095,-3.80017 c -2.095553,-2.09009 -3.810096,-3.90957 -3.810096,-4.04326 0,-0.13371 2.039173,-0.2431 4.5315,-0.2431 h 4.531498 l 2.684798,2.69882 2.684796,2.69882 2.388321,0.008 2.38832,0.008 5.528497,5.54754 5.528497,5.54751 h 2.891421 2.891434 l 3.16317,-3.17508 3.16316,-3.17508 h -1.27492 c -1.12464,0 -1.4782,0.20584 -2.99952,1.7463 l -1.7246,1.74629 h -3.36558 -3.365566 l -2.916064,-2.97355 c -1.603834,-1.63546 -2.916062,-3.10485 -2.916062,-3.26531 0,-0.16045 0.754605,-1.03698 1.676901,-1.94781 1.375454,-1.35838 1.875667,-1.65608 2.782606,-1.65608 0.996762,0 1.52716,-0.42232 5.38324,-4.28635 4.132795,-4.14131 4.322585,-4.28637 5.608325,-4.28637 0.99068,0 1.48405,-0.18256 1.93053,-0.71439 0.32987,-0.39291 1.38993,-1.47371 2.35569,-2.40176 l 1.75592,-1.68739 1.00119,0.84246 c 0.79885,0.67218 1.0012,1.08558 1.0012,2.04539 0,0.68193 0.20627,1.37412 0.47627,1.59819 0.55159,0.45779 0.62174,1.67496 0.14758,2.56093 -0.40949,0.76513 -2.26103,0.83665 -2.98247,0.11521 -0.66167,-0.66168 -0.63237,-1.7762 0.0667,-2.53689 0.59775,-0.65043 0.83714,-1.92478 0.41105,-2.18811 -0.13912,-0.086 -0.93195,0.56084 -1.76186,1.43739 -1.36479,1.44146 -1.46398,1.64537 -1.03834,2.13449 0.25883,0.29744 0.41026,0.70629 0.33651,0.90858 -0.0738,0.20227 0.0163,0.46075 0.20019,0.57437 0.85281,0.52706 -0.46463,1.75665 -1.88215,1.75665 -0.27625,0 -1.35508,0.86224 -2.39739,1.9161 l -1.89511,1.9161 3.48901,-0.0905 c 3.47447,-0.09 3.49078,-0.0941 3.91555,-0.98183 0.46726,-0.97648 1.40725,-1.0582 1.58451,-0.13778 0.0676,0.3509 -0.17941,0.65962 -0.67991,0.84992 -1.0629,0.40411 -1.29905,0.8746 -1.20517,2.40108 0.10128,1.64634 -0.59182,2.32219 -2.51014,2.44786 -1.09076,0.0715 -1.41877,-0.0172 -1.41877,-0.38332 0,-0.35728 0.30405,-0.45218 1.21699,-0.37985 1.43461,0.11364 2.11685,-0.34993 2.11685,-1.43834 v -0.78792 l -7.61501,0.11244 -7.615013,0.11245 -1.122279,1.12238 -1.12228,1.12238 2.148992,2.15645 2.148993,2.15647 2.495737,0.12341 2.49574,0.12344 1.81934,-1.73536 1.81933,-1.73535 h 2.35887 2.35887 l 3.0038,-3.01632 c 1.65207,-1.65897 2.86372,-3.02616 2.69254,-3.0382 -2.35601,-0.16559 -3.01006,-0.60928 -3.01006,-2.04192 0,-1.23154 0.56337,-1.7777 1.87205,-1.81492 1.22331,-0.0348 1.93805,0.55466 1.93805,1.59829 0,0.45565 0.38055,1.2141 0.86053,1.71509 l 0.86052,0.8982 -3.76335,3.77318 c -3.07131,3.07934 -3.901,3.74824 -4.51187,3.63746 l -0.74852,-0.13573 v 4.34695 4.34697 l -4.72526,4.68935 -4.725284,4.68937 v 1.94307 c 0,1.5031 -0.144352,2.10049 -0.637512,2.6383 -0.463155,0.5051 -0.593772,0.97746 -0.477579,1.72714 0.140055,0.90366 0.07189,1.03191 -0.548474,1.03191 -0.799834,0 -3.173762,-2.20282 -3.173762,-2.94501 0,-0.63583 0.85585,-0.93916 1.570579,-0.55665 0.975086,0.52184 1.604501,-0.54466 1.604501,-2.71872 v -1.88401 l 4.728521,-4.72063 4.72851,-4.72063 0.0314,-2.09059 0.0314,-2.09058 -2.1484,2.13194 -2.1484,2.13194 h -3.790974 -3.790951 l -5.567566,-5.51995 -5.567565,-5.51995 -2.333059,-0.006 -2.333058,-0.006 -2.50543,-2.57021 c -2.356732,-2.41766 -2.585402,-2.57023 -3.852408,-2.57023 h -1.34696 l 3.163166,3.17509 3.163168,3.17508 h 3.22696 3.226961 l 5.401922,5.55639 5.401923,5.55639 3.759885,0.007 3.759896,0.007 -4.500524,4.43841 c -2.475283,2.44113 -4.402414,4.43842 -4.282517,4.43842 0.37523,0 9.924091,-9.70183 10.315931,-10.48119 0.50343,-1.0013 1.05045,-1.12314 1.47563,-0.32866 0.2902,0.54224 0.25182,0.69375 -0.21663,0.85502 -0.31313,0.10776 -3.42812,3.03464 -6.922217,6.50408 l -6.352875,6.30808 -7.199238,-7.22319 c -7.526921,-7.55196 -7.431338,-7.42082 -7.289829,-10.00137 0.08834,-1.61085 0.682897,-0.89349 0.682897,0.82393 0,1.24012 0.156154,1.83841 0.579931,2.22191 0.549873,0.49763 0.573156,0.47867 0.449227,-0.36573 -0.08179,-0.55727 0.05766,-1.0469 0.372589,-1.30827 0.644645,-0.53501 0.648357,-1.48637 0.0067,-1.73258 -0.341979,-0.13123 -0.465522,-0.51243 -0.396886,-1.22462 0.09426,-0.97816 0.168352,-1.03409 1.369689,-1.03409 1.013002,0 1.261999,0.11244 1.230343,0.55564 -0.02184,0.30561 -0.05755,0.8414 -0.07938,1.19065 -0.02184,0.34926 -0.254006,0.63502 -0.515951,0.63502 -0.289798,0 -0.476262,0.29555 -0.476262,0.75489 0,0.41519 -0.214317,0.93276 -0.476261,1.15016 -0.261944,0.2174 -0.476262,0.55777 -0.476262,0.7564 0,0.19863 2.705498,3.06384 6.01222,6.36712 6.746258,6.73924 5.877321,6.36417 8.50641,3.67175 l 1.395178,-1.42878 -1.34984,-0.10056 c -0.742413,-0.0553 -1.644048,0.0389 -2.003632,0.20934 -1.305005,0.61865 -1.820508,0.67493 -2.249797,0.24565 -0.240656,-0.24066 -0.337197,-0.53792 -0.21454,-0.66057 0.122656,-0.12266 0.0086,-0.17539 -0.253251,-0.11712 -0.288644,0.0641 -0.434571,-0.0819 -0.370428,-0.37043 0.05821,-0.26194 0.0073,-0.37776 -0.113055,-0.25738 -0.120387,0.1204 -0.573435,-0.13565 -1.006774,-0.569 -0.614619,-0.61462 -0.70796,-0.88418 -0.424441,-1.2258 0.289695,-0.34906 0.247009,-0.40803 -0.21034,-0.29058 -0.385223,0.0989 -1.06995,-0.36583 -2.083611,-1.41426 -1.394603,-1.44243 -1.479413,-1.61992 -1.111278,-2.32561 1.185483,-2.2725 3.22043,-3.62774 4.211782,-2.805 0.256372,0.21278 0.37336,0.54928 0.259969,0.74778 -0.11339,0.19849 -0.0948,0.26055 0.04129,0.13789 0.335867,-0.30268 1.214765,0.61367 0.969385,1.0107 -0.108075,0.17489 0.0023,0.2405 0.246395,0.14676 0.556694,-0.21363 1.357166,0.66403 0.876547,0.96108 -0.18311,0.11316 -0.332925,0.35769 -0.332925,0.54339 0,0.23059 0.135109,0.22553 0.426098,-0.016 0.582522,-0.48344 0.927432,-0.06 0.459606,0.56417 -0.317219,0.42329 -0.306446,0.44096 0.06625,0.10861 0.601363,-0.53625 1.061296,-0.50182 0.844472,0.0632 -0.123973,0.32306 -0.024,0.40155 0.335622,0.26355 0.2817,-0.10812 0.432297,-0.065 0.334666,0.0955 -0.09763,0.16065 0.02182,0.47632 0.265422,0.70149 0.243614,0.22517 0.442935,0.32212 0.442935,0.21545 0,-0.10668 0.214319,0.0204 0.476262,0.28231 0.526527,0.52653 0.632644,1.15664 0.194792,1.15664 -0.15481,0 -0.345145,0.43383 -0.422969,0.96407 -0.140544,0.9576 -0.132286,0.96346 1.229417,0.87315 1.195106,-0.0793 1.62005,-0.33523 3.313749,-1.99597 l 1.942849,-1.90505 -2.970169,-0.0904 -2.970163,-0.0904 -5.522782,-5.54546 -5.522782,-5.54545 h -3.051235 -3.051233 l -3.49129,-3.48822 c -1.920205,-1.91851 -3.695742,-3.49018 -3.94563,-3.49258 -0.249889,-0.002 0.785981,1.26312 2.301932,2.8123 2.275898,2.32578 2.756278,2.98983 2.756278,3.81009 v 0.99341 h 3.89356 c 3.733227,0 3.906465,0.0294 4.20698,0.71441 0.172381,0.39291 0.634899,0.85542 1.027815,1.02781 0.392916,0.17238 0.714393,0.56802 0.714393,0.87919 0,0.44438 0.169676,0.52319 0.79081,0.36729 0.576237,-0.14463 0.847245,-0.0514 0.998792,0.34351 0.243478,0.63449 -0.516639,1.24285 -0.977303,0.78218 -0.167357,-0.16736 -0.624703,-0.30429 -1.016324,-0.30429 -0.541132,0 -0.682686,-0.15242 -0.589745,-0.63501 0.08955,-0.46495 -0.04861,-0.63502 -0.51589,-0.63502 -0.513023,0 -0.596563,0.1401 -0.425969,0.71439 0.211054,0.7105 0.516989,1.03029 1.626556,1.70014 0.51428,0.31049 0.528002,0.41453 0.119583,0.90665 -0.43297,0.52169 -0.503689,0.50285 -1.148776,-0.30616 l -0.687401,-0.86209 -0.0047,0.90796 c -0.0025,0.49938 0.114254,1.05563 0.259654,1.23612 0.357726,0.44402 -0.155312,1.21322 -0.690262,1.03489 -0.334469,-0.11148 -0.406836,-0.90969 -0.327348,-3.61066 l 0.10205,-3.46753 h -3.598848 -3.598847 l -0.09076,3.47641 -0.09076,3.4764 3.666319,3.6759 3.666319,3.6759 0.07578,7.13556 0.07579,7.13554 -2.923455,0.0911 -2.923455,0.0911 -0.09287,9.3254 -0.09287,9.32541 -1.190656,1.1559 c -0.737835,0.7163 -1.190655,1.45198 -1.190655,1.93439 0,0.94662 -1.032492,2.04852 -1.919479,2.04852 -0.357196,0 -0.98456,-0.33512 -1.394139,-0.74469 z m 2.043587,-1.33786 c 0,-0.25163 -0.214318,-0.45752 -0.476262,-0.45752 -0.47824,0 -0.652695,0.67025 -0.273222,1.04973 0.296312,0.29631 0.749484,-0.0618 0.749484,-0.59221 z m 19.874416,-31.30077 c 0.602674,-0.67755 0.60228,-0.67842 -0.109095,-0.24141 -0.682108,0.41902 -0.944069,0.21217 -5.873897,-4.63826 l -5.15995,-5.07685 5.235272,5.31825 c 2.879401,2.92505 5.250474,5.31826 5.269052,5.31826 0.01858,0 0.305956,-0.306 0.638623,-0.67999 z M 82.191077,237.0245 c 0,-0.0569 -0.392916,-0.44979 -0.873147,-0.87315 l -0.873146,-0.76974 0.769737,0.87315 c 0.719439,0.81609 0.976556,1.01875 0.976556,0.76974 z M 102.1204,221.97817 c -0.4771,-0.0725 -1.33438,-0.0739 -1.90506,-0.004 -0.57067,0.0707 -0.18031,0.12994 0.86747,0.13172 1.04778,0.002 1.5147,-0.056 1.03759,-0.12848 z m 4.60422,0.0186 c -0.21496,-0.087 -0.64359,-0.0923 -0.95252,-0.012 -0.30893,0.0805 -0.13305,0.15166 0.39084,0.15812 0.52389,0.006 0.77665,-0.0594 0.56168,-0.14636 z m 2.21651,-0.002 c -0.21828,-0.0881 -0.57547,-0.0881 -0.79376,0 -0.2183,0.0881 -0.0397,0.16014 0.39689,0.16014 0.43657,0 0.61517,-0.0721 0.39687,-0.16014 z m -6.11202,-3.44119 c 2.00488,-2.01535 2.89523,-2.69882 3.51574,-2.69882 0.72141,0 2.21358,-1.10345 1.85349,-1.37063 -0.0716,-0.0532 -0.86492,-0.0396 -1.76273,0.0302 -1.59938,0.12442 -1.69826,0.19383 -4.88943,3.4325 -3.075687,3.12147 -3.205392,3.30552 -2.32946,3.30552 0.741775,0 1.46537,-0.5406 3.61239,-2.69882 z m 1.74629,0.47627 c 1.44402,-1.45517 2.45513,-2.22256 2.92844,-2.22256 0.3976,0 0.7229,-0.11088 0.7229,-0.24652 0,-0.13558 -0.54671,-0.19439 -1.21492,-0.13065 -1.02134,0.0974 -1.58775,0.49085 -3.55452,2.46907 -1.7525,1.7627 -2.18249,2.35321 -1.71351,2.35321 0.35343,0 1.58658,-0.9679 2.83161,-2.22255 z m 10.63653,-0.79377 c 0,-0.26194 -0.21432,-0.47627 -0.47627,-0.47627 -0.26194,0 -0.47626,0.21433 -0.47626,0.47627 0,0.26194 0.21432,0.47626 0.47626,0.47626 0.26195,0 0.47627,-0.21432 0.47627,-0.47626 z m -1.90505,-4.15406 c 0,-0.2765 -0.16967,-0.44617 -0.37704,-0.37704 -0.58873,0.19624 -0.68638,0.87976 -0.12568,0.87976 0.27649,0 0.50272,-0.22622 0.50272,-0.50272 z m -27.094246,56.1864 c -0.640192,-0.82171 -1.163985,-1.65632 -1.163985,-1.85469 0,-0.54518 0.690044,-1.12266 1.341507,-1.12266 0.531258,0 0.572425,-0.29319 0.49462,-3.52252 l -0.08487,-3.52252 2.495661,-2.46102 c 2.268854,-2.23735 2.462067,-2.52379 2.126014,-3.15172 -0.801292,-1.49721 0.955242,-1.83871 2.260336,-0.43943 1.807049,1.93746 1.869926,3.29305 0.121914,2.62846 -0.816643,-0.31049 -1.016225,-0.19428 -3.06803,1.78658 l -2.194567,2.11868 v 3.25966 c 0,3.13866 0.02651,3.26342 0.714394,3.36112 1.053183,0.14957 1.045839,1.43377 -0.0169,2.95742 -0.4866,0.69764 -1.104638,1.31079 -1.373419,1.36254 -0.275524,0.053 -0.996419,-0.55758 -1.65267,-1.3999 z m -4.497819,-7.24477 -0.952524,-0.77166 0.712654,-0.72437 c 0.391957,-0.39839 1.042124,-0.73877 1.444817,-0.7564 1.396596,-0.0612 1.493872,-0.32581 1.493872,-4.06455 v -3.56175 l 2.207023,-2.1901 c 1.213864,-1.20457 2.148862,-2.28424 2.077769,-2.39926 -0.07109,-0.11508 0.114494,-0.2164 0.412418,-0.22528 0.297918,-0.008 2.321517,1.71757 4.496881,3.83656 2.175364,2.11897 3.67559,3.5011 3.333834,3.07137 -0.341756,-0.42973 -1.278748,-1.39202 -2.082201,-2.1384 -0.803454,-0.74639 -5.251637,-5.25537 -9.884849,-10.01996 l -8.424018,-8.66288 -0.116654,-2.18844 c -0.118311,-2.21963 0.09287,-2.66348 0.994622,-2.09043 0.392557,0.24947 0.406509,0.41521 0.07938,0.94305 -0.218287,0.35223 -0.391817,1.17813 -0.385626,1.83537 0.01068,1.13809 0.497998,1.68753 10.239633,11.546 8.061655,8.15834 10.548646,10.49215 11.740286,11.0172 0.831554,0.3664 1.599588,0.89464 1.706748,1.17389 0.21785,0.56772 -0.57527,1.31038 -1.738137,1.62756 -0.86352,0.23552 -2.455651,-0.80068 -2.394525,-1.55843 0.02118,-0.26264 -1.553516,-2.06506 -3.499341,-4.00537 l -3.537861,-3.52782 -2.131206,2.14767 -2.131205,2.14766 -0.138215,3.4263 c -0.07601,1.88448 -0.294444,3.61456 -0.485397,3.84464 -0.257146,0.30985 -0.222656,0.52169 0.132991,0.81685 0.70475,0.58489 0.598036,0.89325 -0.551723,1.59427 -1.310544,0.79905 -1.466795,0.7905 -2.619442,-0.14329 z M 46.353039,246.45468 c -0.544656,-0.38149 -0.702359,-0.74431 -0.606729,-1.39587 0.09341,-0.63648 0.01225,-0.83552 -0.29293,-0.71839 -0.232177,0.089 -0.850029,-0.0152 -1.373002,-0.23187 -1.241638,-0.51431 -1.544698,-1.66905 -0.734774,-2.7997 0.41684,-0.5819 0.634295,-1.49458 0.693679,-2.91142 l 0.0865,-2.0638 -4.939204,-4.91753 -4.939206,-4.91753 v -1.54131 c 0,-1.06052 -0.198077,-1.7931 -0.635016,-2.34859 -0.349259,-0.44401 -0.635016,-1.07377 -0.635016,-1.39948 0,-1.48076 2.26226,-2.41218 3.311154,-1.36329 0.632362,0.63236 0.64484,2.16737 0.02267,2.78953 -0.261945,0.26195 -0.476262,1.0324 -0.476262,1.71212 0,1.17283 0.251056,1.48515 4.921373,6.12239 l 4.921374,4.88652 v 2.5929 c 0,1.98027 0.119007,2.69165 0.503729,3.01094 0.335877,0.27875 0.467439,0.7986 0.394822,1.56008 -0.102075,1.07037 -0.05722,1.13443 0.7151,1.02108 1.642209,-0.24103 2.454445,1.58315 1.24392,2.79368 -0.769756,0.76975 -1.218757,0.79435 -2.182191,0.11953 z m 1.421496,-1.62109 c -0.322753,-0.32276 -0.589056,0.16316 -0.324245,0.59164 0.200039,0.32367 0.274829,0.32393 0.382374,0.001 0.07354,-0.2206 0.04738,-0.48742 -0.05813,-0.59291 z m -2.096876,-2.28981 c 0,-0.42875 -0.578798,-0.72598 -0.957702,-0.4918 -0.177478,0.10969 -0.240488,0.33243 -0.140015,0.495 0.238344,0.38564 1.097717,0.38315 1.097717,-0.004 z m -10.000114,-20.976 c 0.108686,-0.17586 -0.03192,-0.40784 -0.312467,-0.51549 -0.607913,-0.23328 -0.946716,0.0238 -0.654501,0.4966 0.263653,0.4266 0.709602,0.43531 0.966968,0.0188 z m 25.864833,24.81365 c -0.267818,-0.11245 -0.833514,-0.45325 -1.2571,-0.75723 -0.60752,-0.43599 -0.688066,-0.6348 -0.38142,-0.94144 0.30665,-0.30666 -0.198957,-0.97918 -2.394242,-3.18465 l -2.78298,-2.7959 -0.01642,-2.74126 -0.01642,-2.74125 -1.813582,-1.61786 c -0.997474,-0.88983 -1.811644,-1.8389 -1.809269,-2.10906 0.0056,-0.63489 2.262114,-2.84263 2.905446,-2.84263 0.27117,0 0.751646,0.28575 1.067722,0.63501 0.316076,0.34926 0.872026,0.63502 1.235449,0.63502 0.422622,0 2.121385,1.45737 4.713412,4.04364 2.265454,2.26043 4.05264,3.81803 4.05264,3.53204 0,-0.60495 -4.913519,-5.57496 -5.785053,-5.85158 -0.66701,-0.21169 -0.649564,-1.24784 0.02102,-1.24784 0.230269,0 1.620234,1.21447 3.088809,2.69881 1.468577,1.48435 2.671284,2.54556 2.672685,2.35826 0.0029,-0.37367 -4.858949,-5.14132 -5.873921,-5.76024 -0.602649,-0.36748 -0.605827,-0.40684 -0.06748,-0.83559 0.488954,-0.3894 0.499634,-0.47501 0.07938,-0.63628 -0.690158,-0.26485 -0.603058,-1.1588 0.112911,-1.1588 0.329173,0 0.80916,0.32148 1.066632,0.71439 0.257474,0.39293 1.598355,1.82316 2.979734,3.17832 l 2.511596,2.46391 -0.06385,2.77496 c -0.03513,1.52624 -0.07366,2.91601 -0.08565,3.08838 -0.012,0.17237 -2.093508,-1.75465 -4.625634,-4.28225 -3.818592,-3.81179 -4.603865,-4.46446 -4.603865,-3.82646 0,0.42307 -0.310663,1.09988 -0.690362,1.50405 l -0.690363,0.73487 0.662035,0.71439 c 0.535681,0.57805 0.691215,1.25156 0.81493,3.52893 l 0.152896,2.81453 2.01861,2.04892 c 1.110237,1.12692 2.772353,2.50346 3.693593,3.059 0.971864,0.58606 1.637842,1.20292 1.586505,1.46951 -0.122282,0.63494 -1.884315,1.58291 -2.478397,1.33338 z m -2.211875,-4.29327 c 0,-0.0659 -0.250039,-0.31596 -0.55564,-0.55565 -0.503586,-0.39493 -0.514816,-0.38369 -0.119883,0.11989 0.414784,0.52889 0.675518,0.69708 0.675518,0.43576 z m -3.578084,-7.90678 c -0.06659,-0.7369 -0.120279,-0.0539 -0.119307,1.51774 9.53e-4,1.57167 0.05545,2.17459 0.121069,1.33983 0.06562,-0.83476 0.06483,-2.12067 -0.0019,-2.85757 z m 8.956822,-2.87916 c -0.251553,-0.22712 -1.386076,-1.25426 -2.521167,-2.28255 l -2.063802,-1.86961 2.364139,2.43957 c 1.300274,1.34177 2.434801,2.36891 2.521164,2.28254 0.08637,-0.0864 -0.04878,-0.34283 -0.300334,-0.56995 z m -1.869314,11.82563 c -0.679673,-0.56567 -0.72593,-0.72828 -0.369531,-1.29897 0.364404,-0.5835 0.273162,-0.79059 -0.864562,-1.96226 -0.699578,-0.72046 -1.319192,-1.66712 -1.376914,-2.10369 -0.07553,-0.57126 -0.282528,-0.77777 -0.738401,-0.73669 -0.795461,0.0717 -2.768755,-1.12109 -2.615465,-1.58096 0.0628,-0.1884 0.485648,-0.61988 0.939665,-0.95885 0.89021,-0.66464 1.832809,-0.57788 2.936647,0.27032 0.543746,0.41781 0.571931,0.57019 0.212064,1.14643 -0.297679,0.47667 -0.317886,0.76172 -0.07145,1.00816 0.188965,0.18896 0.343576,0.64319 0.343576,1.00941 0,0.84017 2.152634,2.90082 3.074296,2.94291 0.805622,0.0369 2.32334,0.95747 2.32334,1.40938 0,0.55109 -1.406759,1.50141 -2.222557,1.50141 -0.436573,0 -1.143388,-0.29098 -1.570703,-0.6466 z m 3.2999,-4.44007 c -0.117327,-0.18984 -0.05433,-0.50418 0.140014,-0.69851 0.210561,-0.21057 0.352206,-1.57863 0.350522,-3.38555 l -0.0029,-3.0322 -4.328647,-4.36573 c -2.380719,-2.40116 -4.433694,-4.36574 -4.562129,-4.36574 -0.546038,0 -0.931883,-0.83994 -0.557729,-1.21408 0.546451,-0.54646 1.129881,-0.45634 1.34043,0.20705 0.101343,0.31928 2.094754,2.49818 4.429818,4.84199 l 4.245568,4.26149 0.130492,4.04823 c 0.118683,3.68181 0.08059,4.04823 -0.420831,4.04823 -0.303226,0 -0.647319,-0.15533 -0.764651,-0.34518 z M 48.733724,227.5048 c -1.127515,-0.95399 -1.210862,-1.13263 -0.997667,-2.13846 l 0.232625,-1.09751 -1.081251,1.03191 c -1.604358,1.53113 -2.609249,1.40824 -4.543606,-0.55564 -0.860019,-0.87315 -1.431041,-1.58754 -1.268943,-1.58754 0.162101,0 -0.482108,-0.78661 -1.431568,-1.74802 l -1.726294,-1.748 2.453451,-2.46793 2.453451,-2.46792 -1.747964,-1.72625 c -1.649945,-1.62944 -1.778445,-1.69577 -2.291538,-1.18267 -0.513092,0.51309 -0.46706,0.62153 0.820876,1.93383 1.548232,1.57754 1.518164,1.75522 -0.612581,3.61987 -1.072675,0.9387 -1.441647,1.05891 -3.811261,1.24165 -1.929623,0.14879 -2.778091,0.35679 -3.207631,0.78633 -0.714042,0.71404 -1.486218,0.74271 -2.418424,0.0898 -0.786799,-0.55109 -0.978194,-2.28128 -0.324654,-2.93482 0.612651,-0.61265 2.413877,-0.46148 3.026495,0.254 0.448705,0.52406 0.93663,0.63502 2.792179,0.63502 2.153593,0 2.293988,-0.0469 3.327454,-1.11323 l 1.078994,-1.11324 -1.334216,-1.35947 c -0.733818,-0.7477 -1.334215,-1.52229 -1.334215,-1.72129 0,-0.199 0.381968,-0.66227 0.848816,-1.0295 l 0.848816,-0.66768 -1.166325,-1.19442 c -0.641477,-0.65693 -1.166324,-1.43844 -1.166324,-1.73667 0,-0.33059 -0.247882,-0.54226 -0.635016,-0.54226 -0.585063,0 -0.635015,-0.21167 -0.635015,-2.69073 v -2.69072 l 1.82567,-1.88181 c 4.572827,-4.71339 4.340572,-4.41726 3.890048,-4.9601 -0.518983,-0.62534 0.01715,-1.29496 0.797138,-0.99565 0.404302,0.15516 0.47437,0.43474 0.308946,1.23282 -0.149239,0.71998 -1.106903,1.94446 -3.166369,4.04849 l -2.952421,3.01633 -0.04472,2.14318 c -0.02699,1.29265 0.08554,2.14317 0.283508,2.14317 0.180529,0 0.328237,-0.32327 0.328237,-0.71836 0,-0.50404 1.428653,-2.13806 4.788643,-5.47701 l 4.788643,-4.75865 -0.147571,-1.97643 c -0.171776,-2.30056 0.237772,-2.95388 1.493128,-2.38191 0.703893,0.32072 0.735657,0.46371 0.592214,2.66612 l -0.151573,2.32724 -4.729218,4.76634 c -3.963373,3.99448 -4.729218,4.91911 -4.729218,5.70972 0,0.7723 0.58908,1.53447 3.24831,4.20278 l 3.24831,3.2594 -2.846024,2.85928 -2.846021,2.85926 1.546715,1.50694 c 0.850696,0.82882 1.323398,1.16907 1.050453,0.7561 -0.272946,-0.41296 -0.429102,-0.92587 -0.347014,-1.13979 0.08208,-0.21391 -0.07,-0.5709 -0.337965,-0.79329 -0.504134,-0.41839 -0.360794,-1.11867 0.162748,-0.7951 0.162561,0.10044 0.295568,0.0211 0.295568,-0.17626 0,-0.54027 0.903081,-1.33412 1.263958,-1.11109 0.182707,0.11293 0.236442,-0.0126 0.127222,-0.29726 -0.124259,-0.32382 -0.0077,-0.49275 0.339884,-0.49275 0.319784,0 0.439145,-0.14535 0.301829,-0.36752 -0.156455,-0.25315 -0.0084,-0.31033 0.475668,-0.18374 0.541294,0.14154 0.626306,0.0916 0.369913,-0.21733 -0.543308,-0.65465 0.03312,-0.8674 0.715269,-0.264 0.612066,0.54139 0.623249,0.5329 0.416599,-0.31682 -0.126514,-0.52023 -0.08157,-0.87316 0.111207,-0.87316 0.177957,0 0.323557,-0.20982 0.323557,-0.46629 0,-0.2856 0.185958,-0.39493 0.479862,-0.28215 0.357325,0.13711 0.424328,0.0394 0.262387,-0.3826 -0.166699,-0.43441 -0.09718,-0.52057 0.297735,-0.36903 0.38101,0.14621 0.463718,0.0635 0.317509,-0.3175 -0.151543,-0.39492 -0.06538,-0.46444 0.36903,-0.29774 0.435354,0.16705 0.520643,0.0973 0.367912,-0.30066 -0.154604,-0.40288 -0.0525,-0.47985 0.459056,-0.34609 0.540148,0.14126 0.590854,0.0913 0.283351,-0.27923 -0.293851,-0.35407 -0.277239,-0.45129 0.0771,-0.45129 0.248399,0 0.599823,0.14818 0.780943,0.3293 0.376808,0.37681 1.814879,-0.0576 2.187732,-0.66092 0.132298,-0.21407 -0.189896,-0.78986 -0.762255,-1.36222 l -0.991419,-0.99142 -2.467847,2.45337 -2.46785,2.45338 -3.089212,-3.10084 c -2.282629,-2.29123 -3.089216,-3.31144 -3.089216,-3.90735 0,-0.63204 1.866187,-2.67385 8.628254,-9.44018 l 8.628254,-8.63369 h 1.764713 1.764709 l 3.339257,3.25365 c 1.836589,1.78952 1.197863,1.07513 -1.419397,-1.58753 l -4.758648,-4.84121 h -1.615532 c -1.278179,0 -1.759705,0.15346 -2.305905,0.73486 -0.858573,0.91391 -0.859027,1.02236 -0.0046,1.08673 1.262361,0.095 1.572972,1.44865 0.48494,2.11324 -0.468417,0.28611 -0.689699,0.21242 -1.188954,-0.39593 -0.33738,-0.4111 -0.540417,-0.86559 -0.451191,-1.00997 0.08923,-0.14436 0.01702,-0.35223 -0.160456,-0.46192 -0.177475,-0.10969 -0.322684,-0.32664 -0.322684,-0.4821 0,-0.5575 2.078227,-2.21701 2.778195,-2.21845 0.406341,-8.3e-4 0.714394,-0.1968 0.714394,-0.45445 0,-0.24914 0.250037,-0.51832 0.555637,-0.59818 0.305603,-0.0799 -0.167742,-0.16178 -1.051874,-0.18204 -1.381839,-0.0317 -1.730445,0.0915 -2.48316,0.87714 -0.843914,0.88086 -0.872757,1.02242 -0.795866,3.90645 0.08565,3.21228 -0.05646,3.75229 -0.987357,3.75229 -0.902072,0 -1.04537,-0.48143 -0.980703,-3.29489 l 0.05928,-2.57901 1.640523,-1.66691 1.640522,-1.66691 h 2.719491 2.719491 l 10.224913,10.23841 10.224916,10.23842 -0.868254,0.85003 c -0.848801,0.83097 -0.971334,0.85233 -5.467929,0.95293 -3.9168,0.0876 -4.613465,0.0313 -4.692572,-0.37947 -0.08044,-0.41767 0.506524,-0.46593 4.375676,-0.35966 3.964247,0.10884 4.539879,0.0582 5.100398,-0.44908 0.623897,-0.56462 0.608948,-0.59491 -1.191896,-2.41475 -1.217091,-1.22992 -1.929448,-1.73722 -2.141563,-1.5251 -0.212118,0.21211 -0.955705,-0.28987 -2.23545,-1.5091 -1.054682,-1.00482 -0.419933,-0.29193 1.410555,1.58422 l 3.328163,3.41116 h -4.925642 -4.92564 l -1.885169,-1.90505 -1.885169,-1.90505 h -2.714415 -2.71443 l -3.32249,3.33384 c -1.827369,1.83361 -3.150926,3.33383 -2.941241,3.33383 0.209686,0 0.299006,0.21432 0.198489,0.47627 -0.25947,0.67615 -1.384851,0.60744 -1.384851,-0.0846 0,-0.30845 1.60962,-2.16587 3.576933,-4.12761 l 3.576931,-3.56678 h 3.002817 3.002815 l 1.932484,1.91531 1.932484,1.91531 3.892406,-0.0896 3.892407,-0.0896 -1.048764,-0.95253 c -0.57682,-0.52389 -0.800961,-0.65551 -0.49809,-0.2925 0.30287,0.363 0.550675,0.75592 0.550675,0.87314 0,0.11724 -1.478796,0.21312 -3.286216,0.21312 h -3.28622 l -1.625321,-1.86866 -1.62532,-1.86868 -3.423048,-0.14804 -3.423044,-0.14805 -3.814681,3.76302 c -2.64633,2.61048 -4.038472,3.763 -4.545361,3.763 -1.090795,0 -1.811906,0.49208 -2.547071,1.73809 -0.776752,1.31651 -1.745913,1.46396 -3.022425,0.45985 -1.7979,-1.41423 -1.828668,-2.64169 -0.08969,-3.5782 0.586339,-0.31575 1.301345,-1.06749 1.588902,-1.67051 0.69412,-1.45558 1.270575,-1.61715 2.576645,-0.72223 1.103523,0.75615 1.757232,1.77966 1.757232,2.75129 0,0.32082 1.565046,-1.02537 3.899435,-3.35415 l 3.899433,-3.89008 3.720448,0.21249 3.720451,0.21251 1.667225,1.77729 1.667224,1.7773 2.495401,0.0377 2.495402,0.0377 -6.30252,-6.30843 -6.302521,-6.30844 h -1.429596 -1.429598 l -8.495504,8.49113 c -4.672527,4.67013 -8.495505,8.66468 -8.495505,8.8768 0,0.37327 5.314205,5.81016 5.679057,5.81016 0.09943,0 1.269213,-1.08205 2.599501,-2.40453 l 2.418713,-2.40452 1.345236,1.60673 1.345237,1.60675 -0.665668,0.84625 c -0.838449,1.06592 -0.575975,1.39989 0.388268,0.49404 l 0.72503,-0.68113 4.905644,4.91331 4.905644,4.91332 h -1.441998 c -1.231454,0 -1.599468,-0.16243 -2.520089,-1.11226 l -1.078051,-1.11227 -1.049278,1.017 c -0.670808,0.65017 -0.987294,1.2123 -0.877427,1.55846 0.174385,0.54945 -1.291067,1.87162 -2.074438,1.87162 -0.624564,0 -2.22253,-1.06095 -2.22253,-1.47562 0,-0.2124 0.416491,-0.68275 0.925535,-1.04522 0.71935,-0.51222 1.098905,-0.59312 1.703767,-0.36316 0.679296,0.25827 0.953581,0.11725 2.157511,-1.1095 l 1.37928,-1.40538 1.294705,1.27066 c 0.712089,0.69886 1.501556,1.27065 1.754369,1.27065 0.252815,0 -1.387938,-1.85171 -3.646115,-4.11491 -3.161345,-3.16838 -4.201041,-4.03585 -4.519908,-3.77122 -0.22777,0.18903 -0.414129,0.48657 -0.414129,0.6612 0,0.19676 0.159009,0.18555 0.418086,-0.0295 0.321026,-0.26643 0.779659,0.0202 1.975601,1.23432 l 1.557519,1.58129 -3.245636,3.25671 c -2.840856,2.85057 -3.94397,4.19122 -2.936047,3.56828 0.510457,-0.31548 3.173387,2.34105 2.96225,2.95515 -0.239143,0.69555 -2.245701,2.5977 -2.733867,2.59163 -0.208568,-0.002 -0.932848,-0.47315 -1.609509,-1.04567 z m -2.110425,-2.91135 c 0.800098,-0.8255 1.172923,-1.01894 1.477162,-0.76645 0.545133,0.45243 1.261408,0.0302 0.774605,-0.45661 -0.255674,-0.25568 0.570953,-1.27484 3.055199,-3.76681 l 3.40571,-3.4163 -0.931291,-0.97206 c -0.825198,-0.86133 -0.954906,-0.90738 -1.138578,-0.40433 -0.114003,0.31225 -0.07247,0.73679 0.09229,0.94344 0.202564,0.25405 0.0194,0.69016 -0.565586,1.34672 -0.724852,0.81353 -0.947158,0.90707 -1.37072,0.57681 -0.436656,-0.34049 -0.451617,-0.32504 -0.109791,0.11328 0.325716,0.41764 0.287111,0.60578 -0.218125,1.063 -0.337638,0.30556 -0.76413,0.46271 -0.947764,0.34922 -0.202358,-0.12507 -0.259394,-0.0122 -0.144793,0.2864 0.119907,0.31246 0.0121,0.49276 -0.294686,0.49276 -0.266074,0 -0.547558,-0.1786 -0.625516,-0.39689 -0.07797,-0.21829 -0.253104,-0.29318 -0.389214,-0.16643 -0.136106,0.12676 -0.06386,0.45169 0.160533,0.72207 0.54938,0.66196 0.155703,0.99061 -0.547965,0.45744 -0.480282,-0.3639 -0.504813,-0.36121 -0.166428,0.0182 0.544768,0.61091 0.497268,0.95307 -0.132297,0.95307 -0.291047,0 -0.433614,0.0955 -0.316812,0.21237 0.285226,0.28523 -0.752119,1.40613 -1.101489,1.1902 -0.15129,-0.0935 -0.275073,-0.008 -0.275073,0.18891 0,0.19742 -0.223503,0.58244 -0.496675,0.85561 -0.370681,0.37068 -0.588145,0.40519 -0.857271,0.13607 -0.198329,-0.19832 -0.57081,-0.36059 -0.827734,-0.36059 -0.256924,0 -0.719423,-0.22832 -1.027771,-0.50738 -0.308348,-0.27904 -0.725461,-0.40549 -0.92692,-0.28097 -0.520515,0.32169 1.865575,2.6934 2.709738,2.6934 0.366877,0 1.148641,-0.49689 1.737257,-1.10418 z M 31.3898,217.89994 c 0,-0.25164 -0.214319,-0.45753 -0.476262,-0.45753 -0.478241,0 -0.652694,0.67025 -0.273222,1.04973 0.296311,0.29631 0.749484,-0.0618 0.749484,-0.5922 z m 8.953553,-7.22041 c -2.662257,-2.67134 -3.23841,-3.41867 -3.23841,-4.20053 0,-0.80284 0.742315,-1.69215 4.76262,-5.70575 2.619441,-2.61508 4.76262,-4.88972 4.76262,-5.05474 0,-0.16504 -2.213228,1.90491 -4.918282,4.59989 -4.697594,4.6801 -4.918417,4.9567 -4.921373,6.16457 -0.0029,1.18086 0.211365,1.4798 3.235317,4.51408 1.781125,1.7872 3.309847,3.17803 3.397161,3.0907 0.08731,-0.0874 -1.298529,-1.62101 -3.079653,-3.40822 z M 72.983345,199.2627 c 0,-0.045 -3.602277,-3.65265 -8.005058,-8.01708 -4.402782,-4.36442 -7.899576,-7.79244 -7.770652,-7.6178 0.297936,0.40356 15.589604,15.71385 15.696334,15.71545 0.04366,6.3e-4 0.07938,-0.0356 0.07938,-0.0805 z M 50.122771,187.89544 c 0,-1.20168 -0.119175,-1.85014 -0.317508,-1.72757 -0.174629,0.10789 -0.317509,0.97364 -0.317509,1.9238 0,0.95014 0.14288,1.72755 0.317509,1.72755 0.176737,0 0.317508,-0.85294 0.317508,-1.92378 z m 6.696459,-3.44935 c -0.246106,-0.1558 -0.639023,-0.20976 -0.873147,-0.11988 -0.671409,0.25765 -0.500682,0.41334 0.447471,0.40806 0.635456,-0.004 0.751335,-0.082 0.425676,-0.28814 z m 40.823161,43.65432 c -0.09599,-0.25014 -0.647065,-0.50017 -1.224625,-0.55564 -0.885517,-0.0851 -1.066144,-0.24073 -1.152427,-0.99321 -0.14908,-1.30014 0.318892,-1.64771 2.218498,-1.64771 h 1.693918 l 0.104367,1.09726 c 0.07331,0.77072 -0.06287,1.21956 -0.457571,1.50816 -0.486297,0.3556 -0.340082,0.41091 1.086288,0.41091 0.906521,0 1.648231,-0.1384 1.648231,-0.30755 0,-0.16914 -0.19273,-0.23358 -0.42829,-0.14319 -0.3201,0.12284 -0.40973,-0.14036 -0.3548,-1.04186 0.07,-1.1486 0.12457,-1.20508 1.14269,-1.18243 1.02322,0.0228 1.06452,0.0706 0.96052,1.11128 -0.0598,0.59812 -0.23837,1.13511 -0.39688,1.19332 -0.15852,0.0582 -0.28822,0.30825 -0.28822,0.55564 0,0.65077 -4.301869,0.64607 -4.5517,-0.005 z m -12.385777,-7.42854 c -0.289011,-0.31935 -0.525473,-0.91876 -0.525473,-1.33203 0,-0.41328 -0.348833,-1.11641 -0.775183,-1.56255 -0.709754,-0.74267 -0.780256,-1.08874 -0.835271,-4.1001 l -0.06009,-3.28899 5.515114,-5.52186 c 3.990905,-3.9958 5.719757,-5.52188 6.255587,-5.52188 0.407262,0 0.954795,-0.21432 1.216738,-0.47626 0.261944,-0.26195 0.969194,-0.47627 1.571668,-0.47627 0.864949,0 1.172719,0.16969 1.462899,0.80657 0.509505,1.11823 -0.004,2.43517 -1.099708,2.82052 -0.707465,0.24881 -1.047697,0.17026 -1.85814,-0.42892 l -0.9921,-0.7335 -5.200756,5.1936 -5.200756,5.19359 v 2.40895 c 0,2.10752 0.09196,2.49533 0.734857,3.09932 0.404171,0.37969 1.024979,0.69035 1.379575,0.69035 1.044119,0 1.79059,1.06756 1.541013,2.20387 -0.343989,1.56617 -2.115452,2.14663 -3.129972,1.02559 z m 1.855837,-1.32441 c 0,-0.23284 -0.178598,-0.48287 -0.396884,-0.55564 -0.236097,-0.0787 -0.396885,0.14641 -0.396885,0.55564 0,0.40923 0.160788,0.63434 0.396885,0.55564 0.218286,-0.0727 0.396884,-0.3228 0.396884,-0.55564 z m 10.954026,-19.22798 c 0,-0.5239 -0.501803,-0.61242 -0.79377,-0.14 -0.25893,0.41895 0.12072,1.01351 0.498202,0.78021 0.162561,-0.10044 0.295568,-0.38856 0.295568,-0.64021 z M 92.4986,219.32887 c -0.118887,-0.19235 -0.600582,-0.24981 -1.126319,-0.13434 -0.809768,0.17785 -0.9988,0.0659 -1.595525,-0.94553 -0.372307,-0.63102 -1.088363,-1.36007 -1.591235,-1.62011 -0.958938,-0.49589 -1.162749,-1.30408 -0.595951,-2.36316 0.212819,-0.39766 0.212819,-0.6601 0,-0.79164 -0.612301,-0.37842 -0.338263,-0.82729 0.297382,-0.4871 0.409474,0.21915 0.68166,0.22289 0.812509,0.0108 0.451662,-0.7308 1.698671,-0.31248 2.386596,0.80061 0.380363,0.61544 1.120982,1.34103 1.645819,1.61244 0.796177,0.41172 0.931791,0.64651 0.818659,1.41732 -0.10397,0.70844 0.0091,0.96978 0.48493,1.12081 0.491207,0.15591 1.588753,-0.76966 5.266563,-4.44135 3.961802,-3.95519 4.789502,-4.6383 5.620122,-4.6383 0.79429,0 1.43573,-0.46369 3.4752,-2.51219 1.69239,-1.69988 2.51489,-2.76992 2.5437,-3.30926 0.0334,-0.62508 -0.82014,-1.64966 -3.9553,-4.74798 -2.19884,-2.17299 -4.24802,-4.03702 -4.55374,-4.14229 -0.35847,-0.12342 -0.946,0.15117 -1.65457,0.77331 -0.907436,0.79673 -1.06744,1.12112 -0.919024,1.86319 0.141272,0.70638 0.04636,0.94084 -0.443883,1.09644 -2.176555,0.69081 -2.174697,-1.95825 0.0029,-4.18222 1.165027,-1.18981 1.489397,-1.34941 2.742667,-1.34941 1.40454,0 1.47515,0.0535 5.96254,4.52449 l 4.54117,4.52448 0.004,1.5935 0.004,1.5935 -3.10139,3.08975 c -2.53956,2.53012 -3.27356,3.08974 -4.05239,3.08974 -0.7999,0 -1.65639,0.70665 -5.38771,4.44512 l -4.43661,4.4451 h -1.493677 c -0.821521,0 -1.587149,-0.15124 -1.701396,-0.33609 z m -32.215573,-2.20396 c -0.34926,-0.34926 -0.635017,-0.98071 -0.635017,-1.40325 0,-0.56089 -1.071084,-1.83465 -3.96885,-4.71982 -2.182867,-2.17339 -3.968849,-4.081 -3.968849,-4.23916 0,-0.15814 1.250187,-1.52267 2.778195,-3.03227 l 2.778194,-2.74476 1.978831,0.0545 1.97883,0.0545 2.473305,2.45879 2.473307,2.4588 h 5.245128 5.245124 L 77.992279,204.656 79.323333,203.29975 68.6108,192.59069 57.898265,181.88164 h -3.023772 -3.023774 l -1.944419,1.98441 c -1.262624,1.28861 -2.021209,2.35294 -2.163413,3.03537 -0.389066,1.86706 -2.957489,2.08939 -3.61466,0.3129 -0.519809,-1.40519 0.191377,-2.4381 1.740289,-2.52758 0.671243,-0.0388 1.531487,-0.64786 3.177597,-2.24987 l 2.257181,-2.19673 3.756682,0.008 3.756685,0.008 11.444819,11.44482 11.444817,11.44481 -2.369105,2.38502 -2.369102,2.38502 h -5.598281 -5.598282 l -2.553749,-2.54006 c -2.412496,-2.39957 -2.630652,-2.54006 -3.944078,-2.54006 -1.284517,0 -1.540526,0.15154 -3.363905,1.99127 l -1.973576,1.99128 3.593899,3.5837 c 1.976643,1.97104 3.726153,3.55841 3.887796,3.52751 1.792067,-0.34261 2.841348,2.27944 1.334527,3.33485 -0.949755,0.66523 -1.706567,0.6221 -2.469414,-0.14075 z m 1.905047,-1.44753 c 0,-0.52391 -0.501802,-0.61242 -0.79377,-0.14002 -0.258931,0.41896 0.12072,1.01351 0.498202,0.78022 0.162561,-0.10045 0.295568,-0.38856 0.295568,-0.6402 z M 46.630183,186.46665 c 0,-0.25164 -0.214319,-0.45753 -0.476262,-0.45753 -0.47824,0 -0.652696,0.67025 -0.273222,1.04973 0.296311,0.29631 0.749484,-0.0618 0.749484,-0.5922 z m -13.15858,29.31757 c -0.634584,-0.906 -0.624012,-1.50786 0.04323,-2.46047 1.06769,-1.52435 0.796116,-2.3442 -1.546565,-4.66893 l -2.166002,-2.1494 v -2.39333 -2.39333 l 5.397636,-5.39063 c 3.378164,-3.37377 5.399455,-5.62952 5.402496,-6.02915 0.0068,-0.89102 0.351786,-1.34216 1.302942,-1.70379 1.280621,-0.48689 2.321685,0.18582 2.438969,1.57601 0.111903,1.32645 -0.438659,1.92222 -1.841581,1.99278 -0.784966,0.0395 -1.859206,0.9492 -5.981527,5.06548 l -5.024726,5.01737 0.08113,1.77083 c 0.07875,1.71873 0.142569,1.83275 2.169219,3.87504 1.965188,1.98037 2.088086,2.19023 2.088086,3.56553 0,0.91161 0.179157,1.61001 0.476262,1.85658 0.569939,0.47301 0.630809,2.25852 0.09525,2.79407 -0.65354,0.65353 -2.383727,0.46214 -2.934823,-0.32466 z m 2.190994,-0.85993 c 0.234812,-0.37993 -0.362474,-0.75638 -0.785389,-0.495 -0.355087,0.21945 -0.121977,0.79057 0.322687,0.79057 0.154017,0 0.362232,-0.13301 0.462702,-0.29557 z m 7.474997,-24.65527 c 0,-0.5607 -0.683518,-0.46305 -0.87976,0.12568 -0.06912,0.20737 0.100539,0.37704 0.377041,0.37704 0.276496,0 0.502719,-0.22622 0.502719,-0.50272 z M 92.8063,213.85007 c -0.09401,-0.24501 2.598561,-3.156 6.522161,-7.05125 l 6.682279,-6.63399 -1.65985,-1.68073 c -0.91293,-0.92441 -1.91455,-1.76158 -2.22584,-1.86038 -0.59795,-0.18977 -0.76448,-0.9292 -0.27712,-1.23041 0.42534,-0.26287 1.29869,0.14639 1.29869,0.60859 0,0.21978 1.63057,1.9792 3.62348,3.90982 1.99292,1.93062 3.54077,3.59293 3.43967,3.69403 -0.3613,0.3613 -1.34801,0.17569 -1.34801,-0.25356 0,-0.24056 -0.18615,-0.59188 -0.41366,-0.7807 -0.31867,-0.26447 -1.54852,0.80209 -5.3554,4.64436 -2.71797,2.74322 -5.032271,5.2496 -5.142907,5.56972 -0.110631,0.32012 -0.379682,0.52261 -0.597877,0.44996 -0.581993,-0.19378 -0.678102,-1.16363 -0.135928,-1.37167 0.643308,-0.24686 10.395782,-10.06514 10.196062,-10.26486 -0.22961,-0.2296 -11.568129,11.15426 -11.568129,11.61439 0,0.58277 -0.61246,0.83291 -1.083061,0.44235 -0.312282,-0.25917 -0.522592,-0.22541 -0.818738,0.13142 -0.490401,0.59089 -0.923999,0.61492 -1.135822,0.0629 z m 8.26494,-7.19135 c 3.13333,-3.13696 5.62272,-5.7778 5.53198,-5.86855 -0.0907,-0.0907 -2.78394,2.47587 -5.98489,5.70356 -3.200934,3.22771 -5.690317,5.86856 -5.531967,5.86856 0.158351,0 2.851542,-2.5666 5.984877,-5.70357 z m -33.129591,6.22073 c -0.593213,-0.63144 -0.92981,-0.72778 -2.087136,-0.59732 -1.21776,0.13726 -1.442664,0.0596 -1.914464,-0.66038 -0.323243,-0.49333 -0.45191,-1.07646 -0.325436,-1.47493 0.306747,-0.96648 1.591698,-1.70283 2.551227,-1.46201 0.829028,0.20807 1.528826,1.43655 1.242849,2.1818 -0.08757,0.22818 0.204339,0.75641 0.648669,1.17383 l 0.807874,0.75896 1.185912,-1.15249 c 0.949723,-0.92296 1.523968,-1.19676 2.883347,-1.37479 1.151671,-0.15082 1.938199,-0.46306 2.446253,-0.97111 0.411849,-0.41185 1.009278,-0.74882 1.327619,-0.74882 1.009643,0 1.990127,0.9232 1.990127,1.87384 0,1.76351 -2.20777,2.58606 -3.492588,1.30124 -0.458513,-0.45851 -1.058359,-0.63502 -2.158117,-0.63502 -1.358589,0 -1.657056,0.13719 -2.763257,1.27004 -0.682084,0.69851 -1.329129,1.27003 -1.437876,1.27003 -0.108747,0 -0.516001,-0.33878 -0.905003,-0.75287 z m -1.771669,-2.12583 c 0.292215,-0.47282 -0.04659,-0.72988 -0.654502,-0.4966 -0.280543,0.10764 -0.421151,0.33962 -0.312466,0.51548 0.257366,0.41642 0.703316,0.40772 0.966968,-0.0188 z m 11.258478,-0.13763 c 0,-0.26194 -0.214319,-0.47627 -0.476262,-0.47627 -0.261944,0 -0.476262,0.21433 -0.476262,0.47627 0,0.26194 0.214318,0.47626 0.476262,0.47626 0.261943,0 0.476262,-0.21432 0.476262,-0.47626 z m 13.088477,1.88705 c -0.981313,-0.68734 -0.93797,-2.13449 0.08811,-2.9416 0.634756,-0.49929 0.793769,-0.90813 0.793769,-2.04079 0,-1.3031 0.138171,-1.54708 1.727289,-3.05001 l 1.727287,-1.63359 h 2.192352 c 1.826753,0 2.293217,-0.1116 2.797201,-0.66925 0.332667,-0.36808 0.557717,-0.95396 0.500107,-1.30194 -0.12265,-0.74088 1.09244,-2.15642 1.85104,-2.15642 0.64234,0 1.90505,1.2922 1.90505,1.94954 0,0.71186 -1.43234,1.92677 -2.13188,1.80826 -0.33449,-0.0567 -1.06137,0.27829 -1.61527,0.74437 -0.91026,0.76594 -1.189943,0.83205 -2.908807,0.6876 l -1.901711,-0.15982 -1.674445,1.58514 c -1.341659,1.27011 -1.690182,1.81148 -1.75363,2.72391 -0.04355,0.62632 0.0534,1.13876 0.215453,1.13876 0.560979,0 1.292521,1.00121 1.292521,1.76898 0,0.90187 -1.023875,2.04112 -1.8344,2.04112 -0.310406,0 -0.88192,-0.22242 -1.270032,-0.49426 z m 1.834398,-1.41079 c 0,-0.34926 -0.134445,-0.63501 -0.298768,-0.63501 -0.426207,0 -0.726528,0.5779 -0.495002,0.95252 0.331834,0.53692 0.79377,0.35214 0.79377,-0.31751 z m 0.792976,-2.22384 c -0.391674,-0.63373 0.110703,-1.72745 1.336792,-2.91029 1.05879,-1.02143 1.414761,-1.16962 2.950361,-1.2282 2.373689,-0.0906 2.540063,-0.0586 2.540063,0.48843 0,0.45448 -0.424724,0.63709 -1.111278,0.47779 -1.718671,-0.39875 -2.806535,-0.20506 -3.813439,0.67902 -0.750824,0.65923 -1.047834,1.17815 -1.00704,1.75947 0.06058,0.86317 -0.52097,1.33971 -0.895459,0.73378 z m -8.025011,-4.30308 c -0.871257,-0.61025 -0.936052,-2.05638 -0.125025,-2.79036 0.319352,-0.289 1.075111,-0.52547 1.679465,-0.52547 0.998217,0 1.569544,-0.47385 6.239807,-5.17525 4.343627,-4.37257 5.117908,-5.29504 4.992219,-5.94769 -0.0855,-0.44398 -1.814787,-2.43848 -4.066646,-4.69034 -5.551601,-5.55161 -5.101975,-5.5606 -10.85427,0.21701 -2.444812,2.45556 -4.445112,4.59362 -4.445112,4.75123 0,0.15761 1.16462,1.5192 2.588043,3.02574 1.87771,1.98736 2.801016,2.73918 3.364,2.73918 1.637582,0 2.382519,1.98444 1.191886,3.17508 -1.220764,1.22076 -3.164563,0.43318 -3.242756,-1.31388 -0.02242,-0.50093 -1.148544,-1.88351 -3.391693,-4.16409 l -3.358133,-3.41417 5.389672,-5.39668 5.389677,-5.39668 h 2.071409 2.071413 l 4.520379,4.52847 4.520384,4.52846 -0.0023,1.58357 -0.0023,1.58356 -5.713068,5.68616 c -3.141894,3.12739 -5.712775,5.85566 -5.712775,6.06282 0,0.56443 -1.076256,1.4276 -1.780022,1.4276 -0.340312,0 -0.936296,-0.22241 -1.324409,-0.49427 z m 1.834399,-1.41078 c 0,-0.34925 -0.134445,-0.63502 -0.298768,-0.63502 -0.426207,0 -0.726528,0.57791 -0.495002,0.95253 0.331834,0.53693 0.79377,0.35215 0.79377,-0.31751 z m -2.153761,-5.45584 c -0.485,-0.485 -0.842869,-0.12713 -0.573874,0.57387 0.158831,0.4139 0.296527,0.45491 0.578989,0.17244 0.282465,-0.28246 0.281245,-0.45995 -0.0052,-0.74631 z m -33.668138,3.34553 c -0.262893,-0.46976 -0.392475,-0.49218 -0.815503,-0.1411 -0.739556,0.61378 -1.365247,0.22097 -1.55891,-0.97866 -0.09378,-0.58096 -0.217858,-1.34204 -0.275714,-1.6913 -0.07765,-0.46877 0.04793,-0.60883 0.479725,-0.535 0.321705,0.055 0.760009,-0.13943 0.97401,-0.43209 0.349522,-0.478 0.438577,-0.48263 0.875659,-0.0456 0.437077,0.43708 0.755856,0.21586 3.134455,-2.17515 2.556999,-2.57036 2.628908,-2.68271 2.094825,-3.27286 -0.529883,-0.58552 -0.517303,-0.63927 0.300086,-1.28222 0.469235,-0.3691 1.055298,-0.67109 1.302364,-0.67109 0.788884,0 2.322723,0.95198 2.322723,1.44161 0,0.54884 -1.892667,1.79902 -2.422328,1.60003 -0.197189,-0.074 -0.832449,0.35426 -1.411692,0.95189 l -1.053168,1.08659 3.793001,0.004 3.793005,0.004 1.363208,1.26608 c 0.749764,0.69633 1.504902,1.26607 1.678086,1.26607 0.201841,0 0.195148,0.22372 -0.01864,0.62319 -0.348328,0.65086 -1.276359,0.56461 -1.276359,-0.11856 0,-0.20901 -0.471157,-0.83668 -1.047018,-1.39482 l -1.047017,-1.01483 H 58.34959 54.382588 l -1.415517,1.44794 c -1.250188,1.27883 -1.314848,1.41004 -0.55361,1.12341 1.122273,-0.42257 1.54961,0.17417 0.634073,0.88543 -0.362531,0.28164 -0.704557,0.92969 -0.760057,1.44011 -0.118647,1.09122 -0.711938,1.40591 -1.155682,0.61299 z m 35.061328,-4.55943 c -0.505628,-0.51533 -1.192427,-1.02365 -1.52622,-1.12959 -0.638134,-0.20253 -0.67076,-1.11088 -0.04735,-1.31844 0.200566,-0.0667 0.9742,0.52892 1.719181,1.32376 0.744983,0.79484 1.429533,1.37014 1.521222,1.27845 0.09169,-0.0917 -0.146148,-0.38585 -0.528527,-0.65367 -0.382381,-0.26783 -0.695237,-0.66082 -0.695237,-0.8733 0,-0.21247 1.143029,-1.52266 2.540064,-2.91149 1.397034,-1.38884 2.540064,-2.70712 2.540064,-2.9295 0,-0.54949 0.930123,-0.51464 1.14406,0.0428 0.106454,0.27743 -0.86218,1.43969 -2.551453,3.06146 -3.009111,2.88887 -3.125656,3.47651 -0.689461,3.47651 1.222805,0 1.496167,-0.17924 3.785435,-2.482 2.962771,-2.98026 2.966361,-2.93516 -0.506264,-6.35668 -1.828366,-1.80145 -2.536524,-2.30545 -3.122853,-2.22255 -0.635092,0.0898 -0.741508,0.26134 -0.655035,1.05597 0.05679,0.52181 0.227911,1.09896 0.38028,1.28255 0.172022,0.20727 -0.107823,0.71795 -0.738264,1.34722 -1.797883,1.79453 -2.115006,2.02248 -2.490704,1.79029 -0.230229,-0.14229 -0.283322,-0.0894 -0.141177,0.14058 0.133944,0.21673 -0.39155,1.00909 -1.275255,1.92289 -1.626986,1.6824 -1.807347,1.69279 -3.545894,0.20424 -0.931559,-0.79762 -1.801924,-2.50867 -1.352321,-2.65854 0.182917,-0.061 0.236807,-0.26581 0.119763,-0.45519 -0.134036,-0.21687 -0.02321,-0.2716 0.299359,-0.14781 0.348319,0.13366 0.459215,0.0586 0.34663,-0.23487 -0.09629,-0.25092 0.111662,-0.51939 0.497042,-0.64171 0.372761,-0.11832 0.568349,-0.36278 0.447141,-0.5589 -0.136999,-0.22167 -0.02896,-0.27704 0.296727,-0.15207 0.372297,0.14287 0.460088,0.0608 0.321448,-0.30048 -0.160475,-0.41819 -0.0835,-0.43965 0.485285,-0.13524 0.564508,0.30211 0.645336,0.28184 0.490021,-0.12291 -0.259837,-0.67712 2.623273,-3.50872 3.150504,-3.09422 0.620341,0.4877 2.074445,0.73576 2.287944,0.39031 0.108326,-0.17527 0.657979,-0.31867 1.221453,-0.31867 0.864282,0 1.457206,0.43271 3.791357,2.76686 2.031863,2.03186 2.766857,2.98209 2.766857,3.57712 0,0.60065 -0.796939,1.6098 -3.080527,3.90081 l -3.080525,3.09055 -1.602717,-0.008 c -1.349279,-0.007 -1.748092,-0.15698 -2.522043,-0.94579 z m 3.062505,0.10932 c -0.218287,-0.0881 -0.575484,-0.0881 -0.793771,0 -0.218287,0.0881 -0.03968,0.16015 0.396885,0.16015 0.436574,0 0.615172,-0.0721 0.396886,-0.16015 z m -3.769919,-3.11122 c -0.302458,-0.78819 0.364185,-1.32692 0.994581,-0.80373 0.437425,0.36302 0.743606,0.18685 2.258218,-1.29937 1.636592,-1.60591 1.740201,-1.79661 1.570537,-2.89083 -0.200839,-1.29526 0.211957,-1.80657 0.958373,-1.1871 0.330103,0.27397 0.37446,0.49623 0.144844,0.72585 -0.18203,0.18203 -0.330964,0.69977 -0.330964,1.15055 0,0.57789 -0.538386,1.34911 -1.82567,2.61524 -1.979295,1.94675 -3.422918,2.59366 -3.769919,1.68939 z m -11.472694,-4.34855 c -0.650939,-0.65094 -0.474915,-1.83871 0.319737,-2.15752 1.198624,-0.48089 5.635767,-4.97057 5.635767,-5.70251 0,-0.39713 0.204535,-0.66284 0.510232,-0.66284 0.301264,0 0.441955,-0.17792 0.343521,-0.43443 -0.09517,-0.24801 0.503406,-1.09449 1.394816,-1.97249 0.88412,-0.87083 1.561527,-1.82664 1.561527,-2.20329 0,-0.4256 -1.233179,-1.88045 -3.423251,-4.0386 l -3.423247,-3.37334 -1.577504,0.0266 c -1.39365,0.0235 -1.734769,0.17678 -2.926909,1.31456 -0.742175,0.70834 -1.349409,1.5533 -1.349409,1.87768 0,2.33752 -2.910831,3.12477 -3.859037,1.04368 -0.47207,-1.03609 0.278607,-2.24025 1.555811,-2.49568 0.523048,-0.10465 1.582645,-0.87136 2.474077,-1.79029 l 1.559212,-1.60731 h 2.515826 2.515824 l 3.7978,3.82744 c 3.496778,3.52405 3.799935,3.92465 3.824774,5.05401 0.02325,1.05672 -0.223393,1.51175 -1.78102,3.28591 -0.994396,1.13263 -1.807995,2.32611 -1.807995,2.65217 0,0.32607 -1.279415,1.86634 -2.843142,3.42281 -1.563727,1.55649 -2.885354,3.12517 -2.936949,3.48597 -0.109935,0.76875 -1.467223,1.06063 -2.080461,0.44739 z m -4.204752,-16.75933 c 0,-0.42875 -0.578799,-0.72597 -0.957702,-0.4918 -0.177479,0.10968 -0.240487,0.33243 -0.140015,0.495 0.238343,0.38565 1.097717,0.38315 1.097717,-0.004 z m 0.06669,15.13042 c -1.348501,-1.36546 -1.888452,-1.69952 -2.849644,-1.76301 -0.929908,-0.0614 -1.511446,-0.39833 -2.694059,-1.5608 l -1.508162,-1.48247 v -2.75126 c 0,-2.0582 0.119967,-2.85081 0.476262,-3.14651 0.261944,-0.21739 0.476262,-0.73496 0.476262,-1.15015 0,-1.72349 2.248213,-2.63428 3.474788,-1.4077 1.14822,1.14821 0.217785,3.19287 -1.452933,3.19287 -0.933051,0 -0.990688,0.12587 -1.119165,2.44422 -0.103862,1.87405 -0.05804,2.01795 0.985266,3.09445 0.854862,0.88205 1.344252,1.129 2.237495,1.129 0.916149,0 1.390557,0.2532 2.38773,1.2744 l 1.244421,1.2744 2.788867,-2.77595 c 2.300227,-2.28957 2.788866,-2.94698 2.788866,-3.75218 0,-0.69886 0.315739,-1.28225 1.111279,-2.05332 1.327493,-1.28666 1.373323,-1.66032 0.290659,-2.36971 -0.774487,-0.50746 -0.859272,-0.50572 -1.508163,0.031 -1.893234,1.56574 -4.42649,4.16564 -4.676452,4.79947 -0.336241,0.85261 -1.096549,0.93148 -1.530354,0.15875 -0.297079,-0.52918 -0.322127,-0.52918 -0.526009,0 -0.117747,0.3056 -0.406006,0.55564 -0.64059,0.55564 -0.234585,0 -0.57215,-0.25004 -0.750145,-0.55564 -0.297238,-0.51032 -0.323818,-0.50385 -0.325925,0.0793 -0.0023,0.59356 2.599016,3.65134 3.106089,3.65134 0.126834,0 1.047687,-0.8257 2.046338,-1.83487 1.423862,-1.43888 1.815733,-2.04721 1.815733,-2.81871 0,-0.54109 0.214318,-1.16167 0.476262,-1.37907 0.261944,-0.2174 0.476262,-0.59208 0.476262,-0.83264 0,-0.56398 0.769049,-0.56477 1.236707,-0.001 0.283671,0.3418 0.189091,0.54936 -0.437384,0.95984 -0.582728,0.3818 -0.799323,0.80337 -0.799323,1.55576 0,0.86545 -0.398482,1.42818 -2.468793,3.48634 l -2.468792,2.45431 -1.976319,-1.99404 c -1.666756,-1.6817 -1.976319,-2.16801 -1.976319,-3.10472 0,-0.95915 0.321292,-1.42984 2.354792,-3.44976 2.311312,-2.29589 2.352289,-2.36463 2.219291,-3.72277 -0.103791,-1.05988 -0.02766,-1.3837 0.325287,-1.3837 0.684442,0 0.94878,0.62437 0.870001,2.05495 -0.0627,1.13863 -0.321985,1.51749 -2.36426,3.45458 -1.261609,1.19664 -2.123634,2.12534 -1.915608,2.0638 0.208025,-0.0616 1.82749,-1.52146 3.598813,-3.24425 2.421817,-2.35547 3.310894,-3.04205 3.584691,-2.76826 0.273796,0.2738 -0.244284,0.97194 -2.08888,2.81485 -1.349138,1.34791 -2.556643,2.59363 -2.683339,2.76826 -0.126698,0.17462 1.015534,-0.89381 2.538293,-2.3743 1.522755,-1.4805 2.768651,-2.82659 2.768651,-2.99133 0,-0.16474 -0.240487,-0.56525 -0.534418,-0.89004 -0.500969,-0.55356 -0.500691,-0.62425 0.0044,-1.1294 0.506838,-0.50684 0.693987,-0.38379 3.147206,2.06944 l 2.608322,2.60832 -1.660265,1.68115 c -1.255725,1.2715 -1.660275,1.91207 -1.660275,2.62886 0,0.78485 -0.615236,1.56121 -3.579894,4.51746 l -3.579896,3.56974 z m -3.422763,-11.6206 c 0.0957,-0.15484 -0.02207,-0.44424 -0.261689,-0.64312 -0.332524,-0.27597 -0.476875,-0.25425 -0.609644,0.0918 -0.27141,0.70729 0.480795,1.18329 0.871333,0.55138 z m -0.773926,6.15256 c -0.314494,-0.37895 -0.326051,-0.58946 -0.04765,-0.86785 0.479862,-0.47987 0.47182,-1.91433 -0.01346,-2.39961 -0.471589,-0.47159 0.111843,-1.18725 0.763904,-0.93703 0.301385,0.11568 0.418876,0.79352 0.40261,2.32284 -0.02346,2.20675 -0.360073,2.77971 -1.105404,1.88165 z"
       id="path915"
       inkscape:connector-curvature="0" />
  </g>
</svg>
